<?xml version="1.0" standalone="no"?>
<!DOCTYPE svg PUBLIC "-//W3C//DTD SVG 20010904//EN"
 "http://www.w3.org/TR/2001/REC-SVG-20010904/DTD/svg10.dtd">
<svg version="1.0" xmlns="http://www.w3.org/2000/svg"
 width="256.000000pt" height="256.000000pt" viewBox="0 0 256.000000 256.000000"
 preserveAspectRatio="xMidYMid meet">
<metadata>
Created by potrace 1.16, written by Peter Selinger 2001-2019
</metadata>
<g transform="translate(0.000000,256.000000) scale(0.100000,-0.100000)"
fill="#000000" stroke="none">
<path d="M1074 2541 c-20 -12 -59 -64 -110 -148 -47 -77 -90 -137 -108 -148
-47 -31 -56 -58 -56 -179 0 -60 -3 -106 -7 -102 -4 4 -24 64 -44 133 -30 99
-44 133 -68 157 -31 30 -34 31 -154 37 -100 4 -129 9 -162 27 -70 39 -162 19
-218 -47 -67 -80 -39 -218 56 -268 44 -23 135 -23 171 0 18 12 41 17 73 15
l46 -3 51 -173 c55 -189 70 -212 109 -174 l20 20 -59 202 c-63 217 -65 220
-132 220 -26 0 -27 2 -24 50 l4 50 72 0 c42 0 79 -5 88 -12 9 -7 35 -76 57
-152 23 -76 46 -145 52 -152 9 -12 151 -14 809 -14 779 0 797 0 815 -20 17
-19 15 -37 -56 -491 -41 -259 -79 -479 -86 -488 -10 -14 -73 -17 -590 -21
l-578 -5 -3 -23 c-4 -27 53 -225 77 -265 9 -16 33 -37 53 -48 35 -18 65 -19
513 -19 309 0 483 -4 496 -10 11 -6 19 -21 19 -36 0 -24 -1 -24 -30 -9 -57 29
-181 14 -230 -29 -9 -8 -47 -15 -93 -18 -64 -3 -82 -7 -93 -23 -26 -36 -9 -56
52 -62 l49 -5 -3 -72 c-2 -64 0 -76 28 -123 73 -126 259 -154 363 -55 71 67
94 190 53 277 -14 29 -19 57 -17 102 3 58 1 63 -32 100 l-35 38 -501 5 c-431
4 -502 7 -516 20 -8 9 -26 53 -39 98 l-24 82 537 0 c514 0 537 1 568 20 18 10
39 30 48 44 16 24 165 919 165 991 0 59 -63 125 -120 125 -20 0 -20 5 -20 245
l0 245 -28 31 c-25 28 -35 32 -98 36 -86 6 -115 -9 -96 -51 10 -23 17 -26 61
-26 83 0 81 3 81 -131 l0 -119 -265 0 c-254 0 -265 1 -275 20 -18 34 -64 50
-140 50 l-70 0 0 78 c0 47 5 83 12 90 9 9 77 12 245 12 l233 0 12 26 c11 23
10 28 -7 41 -16 11 -64 13 -262 11 -230 -3 -243 -4 -271 -25 l-30 -22 -103 44
c-119 51 -183 58 -235 26z m213 -108 l113 -48 0 -62 0 -63 -210 0 -210 0 57
93 c62 102 85 127 117 127 11 0 72 -21 133 -47z m-962 -187 c39 -17 55 -42 55
-89 0 -78 -95 -116 -157 -63 -52 45 -26 146 41 159 11 2 22 5 24 6 1 0 18 -5
37 -13z m1293 -78 c8 -8 12 -47 12 -110 l0 -98 -375 0 -375 0 0 98 c0 63 4
102 12 110 17 17 709 17 726 0z m612 -128 l0 -80 -260 0 -260 0 0 80 0 80 260
0 260 0 0 -80z m-72 -1680 c100 -61 95 -211 -8 -262 -91 -46 -200 12 -217 115
-19 118 122 210 225 147z"/>
<path d="M2023 320 c-45 -27 -62 -84 -38 -133 16 -35 64 -67 100 -67 25 0 72
27 89 52 9 12 16 40 16 61 0 31 -7 46 -34 73 -40 40 -83 45 -133 14z"/>
<path d="M798 1773 c-9 -2 -20 -12 -23 -22 -5 -16 196 -725 216 -763 9 -17 47
-18 569 -18 384 0 561 3 565 11 11 17 125 753 119 770 -2 9 -15 20 -27 23 -25
7 -1393 6 -1419 -1z m402 -89 c0 -8 5 -70 11 -137 8 -91 15 -125 27 -134 20
-16 244 -18 273 -3 17 10 19 23 19 150 l0 140 30 0 30 0 0 -132 c0 -174 -5
-168 154 -168 163 0 161 -1 170 132 11 161 13 168 48 168 29 0 30 -2 25 -32
-4 -18 -9 -81 -13 -139 -8 -125 -5 -129 90 -129 58 0 60 -1 50 -37 -6 -21 -12
-23 -75 -23 -84 0 -83 1 -93 -150 -10 -143 -13 -152 -45 -148 -26 3 -26 4 -21
68 3 36 5 101 5 145 l0 80 -134 3 c-90 2 -138 -1 -147 -9 -11 -9 -14 -44 -14
-151 l0 -139 -27 3 -28 3 -5 145 -5 145 -136 3 c-109 2 -139 0 -148 -12 -9
-11 -9 -39 -1 -116 5 -56 10 -118 10 -137 0 -32 -2 -34 -27 -31 l-28 3 -13
135 c-7 74 -14 141 -17 148 -3 8 -33 12 -104 12 -94 0 -99 1 -105 23 -3 12 -6
25 -6 30 0 4 40 7 88 7 128 0 127 -2 113 147 -15 163 -16 153 19 153 21 0 30
-5 30 -16z m-139 -21 c0 -16 4 -63 8 -106 l7 -78 -75 3 -75 3 -28 95 c-15 52
-28 98 -28 103 0 4 43 7 95 7 l95 0 1 -27z m389 -78 l0 -105 -74 0 c-86 0 -79
-9 -91 133 l-7 77 86 0 86 0 0 -105z m396 78 c-2 -16 -8 -63 -11 -105 l-7 -78
-79 0 -79 0 0 105 0 105 91 0 91 0 -6 -27z m314 20 c0 -5 -7 -48 -15 -98 -8
-49 -15 -93 -15 -97 0 -5 -18 -8 -40 -8 l-41 0 6 63 c3 34 8 81 11 105 l5 42
45 0 c24 0 44 -3 44 -7z m-1060 -460 c0 -21 3 -68 7 -105 l6 -68 -30 0 c-32 0
-29 -6 -74 148 l-18 62 55 0 54 0 0 -37z m350 -68 l0 -105 -59 0 -58 0 -7 77
c-12 143 -16 133 59 133 l65 0 0 -105z m355 23 c-10 -135 -6 -128 -75 -128
l-60 0 0 105 0 105 71 0 70 0 -6 -82z"/>
<path d="M652 1558 c-7 -7 -12 -20 -12 -30 0 -19 272 -962 292 -1011 6 -15 23
-45 39 -66 27 -38 27 -39 9 -56 -65 -59 -79 -186 -32 -276 40 -78 111 -119
202 -119 81 0 134 23 182 79 44 51 63 114 55 181 l-6 50 115 0 c121 0 154 8
154 40 0 41 -35 50 -186 50 -139 0 -143 1 -200 31 -48 25 -69 30 -119 29 -33
-1 -65 -1 -71 -1 -6 1 -24 19 -39 41 -20 29 -66 171 -175 546 -81 279 -154
510 -161 515 -19 12 -33 11 -47 -3z m576 -1198 c100 -61 95 -211 -8 -262 -91
-46 -200 12 -217 115 -19 118 122 210 225 147z"/>
<path d="M1093 320 c-45 -27 -62 -84 -38 -133 16 -35 64 -67 100 -67 25 0 72
27 89 52 9 12 16 40 16 61 0 31 -7 46 -34 73 -40 40 -83 45 -133 14z"/>
</g>
</svg>
